<svg xmlns="http://www.w3.org/2000/svg" version="1.1" xmlns:xlink="http://www.w3.org/1999/xlink" xmlns:svgjs="http://svgjs.dev/svgjs" width="100%" height="100%" viewBox="0 0 1000 600"><rect width="1000" height="600" x="0" y="0" fill="000"/><g><rect width="333.3333333333333" height="333.3333333333333" rx="13.333333333333334" ry="13.333333333333334" y="200.46742517295976" fill="#5c9e95" transform="matrix(0.7012810821095823,0,0,0.7012810821095823,0,42.535795351296215)" x="178.24522399902344"/><path d="M214.87320449381468 294.22307585107785L271.9138226075761 294.22307585107785Q286.942835925444 294.22307585107785 298.2291026834568 298.3139848816172Q309.5153694414696 302.37588037293284 315.6662397568905 309.28110270816944Q321.84612361153506 316.1573115041824 324.776491073127 323.9909670945769Q327.6778449954953 331.8246226849714 327.6778449954953 340.61572506974744Q327.6778449954953 349.3778139152998 324.776491073127 357.21146950569425Q321.84612361153506 365.0451250960888 315.6662397568905 371.9503474313254Q309.5153694414696 378.8265562273383 298.2291026834568 382.91746525787767Q286.942835925444 386.97936074919335 271.9138226075761 386.97936074919335L271.9138226075761 386.97936074919335L233.90608622455093 386.97936074919335L233.90608622455093 440.04512398931007L214.87320449381468 440.04512398931007L214.87320449381468 294.22307585107785ZM233.90608622455093 369.01997996973336L270.0279425580366 369.01997996973336Q291.3528938874439 369.01997996973336 299.9989285761015 360.86717544787837Q308.6739768039828 352.7143709260234 308.6739768039828 340.61572506974744Q308.6739768039828 328.4880656742478 299.9989285761015 320.33526115239283Q291.3528938874439 312.21147016976147 270.0279425580366 312.21147016976147L270.0279425580366 312.21147016976147L233.90608622455093 312.21147016976147L233.90608622455093 369.01997996973336ZM420.02794034447925 377.1727844915884L420.02794034447925 360.02578281039155L474.95057009491177 360.02578281039155L474.95057009491177 426.0605980834947Q448.02600569533365 442.1340988134153 419.1865477069924 442.1340988134153L419.1865477069924 442.1340988134153Q386.4012483842303 442.1340988134153 366.1207844668757 421.24435057236326Q345.8693340887448 400.3546023313113 345.8693340887448 367.134099920194Q345.8693340887448 333.9135975090766 366.75908232979674 313.0238492680246Q387.64883057084876 292.13410102697264 416.98151872599254 292.13410102697264Q446.34322042036 292.13410102697264 472.6585004962408 308.2366152961169L472.6585004962408 308.2366152961169L472.6585004962408 327.87878135055047L471.81710785875396 327.87878135055047Q446.1401256457942 310.52868489478783 421.1594683742029 310.52868489478783Q396.20782464183526 310.52868489478783 380.5405134610463 325.5576982126558Q364.8732022802573 340.61572506974744 364.8732022802573 366.4087614396019Q364.8732022802573 392.20179780945637 380.13432391191475 408.1882579217058Q395.36643200434844 424.1747180339553 421.68171208022926 424.1747180339553L421.68171208022926 424.1747180339553Q441.3238781346628 424.1747180339553 458.2387715020701 414.9774261000477L458.2387715020701 414.9774261000477L458.2387715020701 377.1727844915884L420.02794034447925 377.1727844915884Z " fill="#000000" transform="matrix(0.7012810821095823,0,0,0.7012810821095823,0,42.535795351296215)"/><path d="M594.9118855240881 294.22307585107785L651.9525036378494 294.22307585107785Q666.9815169557173 294.22307585107785 678.2677837137302 298.3139848816172Q689.554050471743 302.37588037293284 695.7049207871638 309.28110270816944Q701.8848046418084 316.1573115041824 704.8151721034004 323.9909670945769Q707.7165260257688 331.8246226849714 707.7165260257688 340.61572506974744Q707.7165260257688 349.3778139152998 704.8151721034004 357.21146950569425Q701.8848046418084 365.0451250960888 695.7049207871638 371.9503474313254Q689.554050471743 378.8265562273383 678.2677837137302 382.91746525787767Q666.9815169557173 386.97936074919335 651.9525036378494 386.97936074919335L651.9525036378494 386.97936074919335L613.9447672548243 386.97936074919335L613.9447672548243 440.04512398931007L594.9118855240881 440.04512398931007L594.9118855240881 294.22307585107785ZM613.9447672548243 369.01997996973336L650.06662358831 369.01997996973336Q671.3915749177172 369.01997996973336 680.0376096063749 360.86717544787837Q688.7126578342561 352.7143709260234 688.7126578342561 340.61572506974744Q688.7126578342561 328.4880656742478 680.0376096063749 320.33526115239283Q671.3915749177172 312.21147016976147 650.06662358831 312.21147016976147L650.06662358831 312.21147016976147L613.9447672548243 312.21147016976147L613.9447672548243 369.01997996973336ZM800.0666213747527 377.1727844915884L800.0666213747527 360.02578281039155L854.9892511251852 360.02578281039155L854.9892511251852 426.0605980834947Q828.0646867256071 442.1340988134153 799.2252287372659 442.1340988134153L799.2252287372659 442.1340988134153Q766.4399294145037 442.1340988134153 746.1594654971491 421.24435057236326Q725.9080151190182 400.3546023313113 725.9080151190182 367.134099920194Q725.9080151190182 333.9135975090766 746.7977633600701 313.0238492680246Q767.6875116011221 292.13410102697264 797.0201997562659 292.13410102697264Q826.3819014506334 292.13410102697264 852.6971815265141 308.2366152961169L852.6971815265141 308.2366152961169L852.6971815265141 327.87878135055047L851.8557888890274 327.87878135055047Q826.1788066760677 310.52868489478783 801.1981494044763 310.52868489478783Q776.2465056721087 310.52868489478783 760.5791944913198 325.5576982126558Q744.9118833105307 340.61572506974744 744.9118833105307 366.4087614396019Q744.9118833105307 392.20179780945637 760.1730049421882 408.1882579217058Q775.4051130346219 424.1747180339553 801.7203931105026 424.1747180339553L801.7203931105026 424.1747180339553Q821.3625591649362 424.1747180339553 838.2774525323435 414.9774261000477L838.2774525323435 414.9774261000477L838.2774525323435 377.1727844915884L800.0666213747527 377.1727844915884ZM935.4147818532352 292.13410102697264Q960.2793849679318 292.13410102697264 972.2909902065368 303.8555708733407Q984.3025954451415 315.54802718048506 984.3025954451415 328.9232687626031Q984.3025954451415 342.2694968054974 977.5134272667997 350.33526070968134Q970.7242590884578 358.3720110746416 960.076290193366 361.91166285993097L960.076290193366 361.91166285993097L960.076290193366 362.11475763449675Q991.2078177803782 372.55963175502274 991.2078177803782 401.3990897433639L991.2078177803782 401.3990897433639Q991.2078177803782 416.42810306123187 978.8770636103128 428.75885723129727L978.8770636103128 428.75885723129727Q972.813233912563 434.8226869290471 961.5269671545502 438.4783928712312Q950.2697139357612 442.1340988134153 935.4147818532352 442.1340988134153Q920.5888633099331 442.1340988134153 909.3025965519203 438.4783928712312Q898.0453433331312 434.8226869290471 891.9815136353814 428.75885723129727L891.9815136353814 428.75885723129727Q879.6507594653159 416.42810306123187 879.6507594653159 401.3990897433639L879.6507594653159 401.3990897433639Q879.6507594653159 372.55963175502274 910.7822870523281 362.11475763449675L910.7822870523281 362.11475763449675L910.7822870523281 361.91166285993097Q900.1343181572364 358.3720110746416 893.3451499788945 350.33526070968134Q886.5559818005526 342.2694968054974 886.5559818005526 328.9232687626031Q886.5559818005526 315.54802718048506 898.5675870391575 303.8555708733407Q910.5791922777623 292.13410102697264 935.4147818532352 292.13410102697264ZM907.6488248161703 416.95034676725817Q916.6140084362885 425.4223002205737 935.4147818532352 425.4223002205737Q954.215555270182 425.4223002205737 963.2097524295237 416.95034676725817Q972.2039495888656 408.50740685316634 972.2039495888656 399.31011491925875L972.2039495888656 399.31011491925875Q972.2039495888656 385.93487333714074 961.5269671545502 378.53642083510147Q950.8789982594584 371.10895479383856 935.4147818532352 371.10895479383856Q919.9795789862358 371.10895479383856 909.3025965519203 378.53642083510147Q898.6546276568284 385.93487333714074 898.6546276568284 399.31011491925875L898.6546276568284 399.31011491925875Q898.6546276568284 408.50740685316634 907.6488248161703 416.95034676725817ZM935.4147818532352 308.84589961981425Q920.7919580844988 308.84589961981425 913.190410807894 315.22887824902455Q905.5598499920651 321.6118568782349 905.5598499920651 330.89618942981355Q905.5598499920651 340.1805219813922 912.7552077195386 347.0857443166288Q919.9795789862358 353.99096665186545 935.4147818532352 353.99096665186545Q950.8789982594584 353.99096665186545 958.1033695261555 347.0857443166288Q965.298727253629 340.1805219813922 965.298727253629 330.89618942981355Q965.298727253629 321.6118568782349 957.6681664378003 315.22887824902455Q950.0376056219717 308.84589961981425 935.4147818532352 308.84589961981425ZM1010.008591197325 367.134099920194Q1010.008591197325 332.66601532245824 1024.5153608091669 312.41456494432725Q1039.051143960232 292.13410102697264 1066.4979520658362 292.13410102697264Q1093.9737737106643 292.13410102697264 1108.5965974794008 312.41456494432725Q1123.2194212481372 332.66601532245824 1123.2194212481372 367.134099920194Q1123.2194212481372 401.6021845179297 1108.5965974794008 421.8826484352843Q1093.9737737106643 442.1340988134153 1066.4979520658362 442.1340988134153Q1039.051143960232 442.1340988134153 1024.5153608091669 421.8826484352843Q1010.008591197325 401.6021845179297 1010.008591197325 367.134099920194ZM1038.7319950287715 409.34879949065316Q1048.4515306687053 424.58090758308686 1066.614006222731 424.58090758308686Q1084.776481776757 424.58090758308686 1094.4960174166908 409.34879949065316Q1104.2155530566247 394.08767785899573 1104.2155530566247 367.2501540770887Q1104.2155530566247 340.41263029518166 1094.4960174166908 325.1515086635242Q1084.776481776757 309.8903870318668 1066.614006222731 309.8903870318668Q1048.4515306687053 309.8903870318668 1038.7319950287715 325.1515086635242Q1029.0124593888377 340.41263029518166 1029.0124593888377 367.2501540770887Q1029.0124593888377 394.08767785899573 1038.7319950287715 409.34879949065316ZM1217.6584914212262 364.43584077239143L1217.6584914212262 364.6389355469572Q1247.7165180569623 372.15344220589117 1247.7165180569623 401.80527929249547L1247.7165180569623 401.80527929249547Q1247.7165180569623 421.04125579779753 1232.5714505821993 431.57317053599456Q1217.4263831074368 442.1340988134153 1192.8809289242008 442.1340988134153Q1168.3354747409649 442.1340988134153 1147.4457264999128 432.7337121049419L1147.4457264999128 432.7337121049419L1147.4457264999128 414.13603346256093L1148.4902139119654 414.13603346256093Q1166.8847977797805 423.9716232593895 1190.0666156195036 423.9716232593895L1190.0666156195036 423.9716232593895Q1217.0201935583054 423.9716232593895 1225.3760928547263 412.0470586384557L1225.3760928547263 412.0470586384557Q1228.7126498654497 407.25982466654796 1228.7126498654497 400.76079188044287L1228.7126498654497 400.76079188044287Q1228.7126498654497 374.44551180456216 1182.5521089605695 374.44551180456216L1182.5521089605695 374.44551180456216L1171.7010452909121 374.44551180456216L1171.7010452909121 356.89232057423374L1180.0569445873327 356.89232057423374Q1200.9466928283846 356.89232057423374 1212.2039460471738 350.5383554842471Q1223.4902128051867 344.1553768550368 1223.4902128051867 331.62152791040563L1223.4902128051867 331.62152791040563Q1223.4902128051867 321.6118568782349 1215.134313508766 315.75112195505085Q1206.778414212345 309.8903870318668 1190.5018187078585 309.8903870318668L1190.5018187078585 309.8903870318668Q1167.0878925543464 309.8903870318668 1149.7668096378075 321.37974856444544L1149.7668096378075 321.37974856444544L1148.9254170003205 321.37974856444544L1148.9254170003205 303.8555708733407Q1169.8151652413726 292.13410102697264 1192.9969830810956 292.13410102697264Q1216.1788009208185 292.13410102697264 1229.3509477283706 301.9696908238013Q1242.4940809966993 311.7762670814062 1242.4940809966993 329.7356478608662L1242.4940809966993 329.7356478608662Q1242.4940809966993 355.23854883848384 1217.6584914212262 364.43584077239143L1217.6584914212262 364.43584077239143Z " fill="#5c9e95" transform="matrix(0.7012810821095823,0,0,0.7012810821095823,0,42.535795351296215)"/></g></svg>