<svg xmlns="http://www.w3.org/2000/svg" version="1.1" xmlns:xlink="http://www.w3.org/1999/xlink" xmlns:svgjs="http://svgjs.dev/svgjs" width="100%" height="100%" viewBox="0 0 1000 600"><rect width="1000" height="600" x="0" y="0" fill="#f6f5e1"/><g><rect width="333.3333333333333" height="333.3333333333333" rx="13.333333333333334" ry="13.333333333333334" y="164.40349739256752" fill="#292826" transform="matrix(0.879159444675701,0,0,0.8791594446757008,0,8.93653309800905)" x="142.18130493164062"/><path d="M247.80496838119308 404.2562600816826L227.3229398079962 404.2562600816826L227.3229398079962 257.3298263315175L263.77742362769595 257.3298263315175Q277.00382584286 257.3298263315175 284.9144740248819 262.14171742312953Q292.7999290598273 266.95360851474163 296.42774223884373 276.02314146228264Q300.05555541786015 285.09267440982376 300.05555541786015 297.96637256591674L300.05555541786015 297.96637256591674Q300.05555541786015 309.5804133681846 295.9742655914667 318.09569708004256Q291.89297576507323 326.6109807919006 283.9067481418218 331.24651985397713Q275.92052051857036 335.88205891605367 263.95377565723146 335.88205891605367L263.95377565723146 335.88205891605367L247.80496838119308 335.88205891605367L247.80496838119308 404.2562600816826ZM247.80496838119308 272.01743107711866L247.80496838119308 321.16926102337595L257.25239853488165 321.16926102337595Q266.1203863058107 321.16926102337595 271.20940201526435 319.1790024043322Q276.29841772471786 317.18874378528847 278.4650283732972 312.2005006641409Q280.63163902187637 307.2122575429933 280.63163902187637 298.14272459545225L280.63163902187637 298.14272459545225Q280.63163902187637 287.611989117474 279.0948570502097 281.99391731941387Q277.5580750785431 276.3758455213537 272.6706045457015 274.20923487277446Q267.75794086578344 272.01743107711866 257.4287505644172 272.01743107711866L257.4287505644172 272.01743107711866L247.80496838119308 272.01743107711866ZM349.3837373936529 406.0701666711908L349.3837373936529 406.0701666711908Q335.6030859428058 406.0701666711908 327.3397337017128 400.17497025528917Q319.10157460769636 394.27977383938753 315.372988840374 383.0436302432672Q311.669596220128 371.7822935000704 311.669596220128 356.01138343017954L311.669596220128 356.01138343017954L311.669596220128 306.8595534839223Q311.669596220128 290.71074620788386 315.0202847813029 279.3738300234576Q318.3709733424778 268.03691383903123 326.9870296426418 262.04094483482356Q335.6030859428058 256.07016897769233 351.02129195362556 256.07016897769233L351.02129195362556 256.07016897769233Q364.8019434044727 256.07016897769233 373.2416476751012 260.6805148926924Q381.6813519457297 265.3160539547689 385.4855171542816 274.839063549687Q389.28968236283356 284.3620731446051 389.28968236283356 298.87332586067083L389.28968236283356 298.87332586067083L389.28968236283356 304.3150456291955L370.0673111434618 304.3150456291955L370.0673111434618 299.7802791554249Q370.0673111434618 290.15649697220084 368.8076537896367 284.0849485267636Q367.522803288735 278.0134000813264 363.61786549187707 275.0154155792226Q359.73812084209567 272.01743107711866 351.3739960126967 272.01743107711866L351.3739960126967 272.01743107711866Q342.3044630651556 272.01743107711866 338.2231732387621 276.1994934918182Q334.14188341236866 280.35636275944114 333.15935067638503 287.5364096762445Q332.1516247933249 294.69126344597134 332.1516247933249 303.7607963935124L332.1516247933249 303.7607963935124L332.1516247933249 358.17799407875873Q332.1516247933249 368.708729556737 333.68840676499156 375.7880038852343Q335.2503818837348 382.84208506665516 339.5836031808933 386.29354621613606Q343.9420176251283 389.74500736561697 351.9282452483797 389.74500736561697L351.9282452483797 389.74500736561697Q359.9144728716311 389.74500736561697 364.2728873158661 385.94084215706505Q368.6061086130246 382.136676948513 370.24366317299734 374.67950541386824Q371.88121773297 367.24752702629985 371.88121773297 356.187735459715L371.88121773297 356.187735459715L371.88121773297 346.0348971878843L353.1879026022049 346.0348971878843L353.1879026022049 331.52364447181867L390.3729876871232 331.52364447181867L390.3729876871232 404.2562600816826L377.4992895310302 404.2562600816826L375.50903091198643 387.3768515404257Q372.6118189981886 395.53943119321264 366.4394979644454 400.8047989322017Q360.2671769307022 406.0701666711908 349.3837373936529 406.0701666711908Z " fill="#f6f5e1" transform="matrix(0.879159444675701,0,0,0.8791594446757008,0,8.93653309800905)"/><path d="M579.3299927952556 404.2562600816826L558.8479642220586 404.2562600816826L558.8479642220586 257.3298263315175L595.3024480417585 257.3298263315175Q608.5288502569225 257.3298263315175 616.4394984389444 262.14171742312953Q624.3249534738899 266.95360851474163 627.9527666529063 276.02314146228264Q631.5805798319227 285.09267440982376 631.5805798319227 297.96637256591674L631.5805798319227 297.96637256591674Q631.5805798319227 309.5804133681846 627.4992900055292 318.09569708004256Q623.4180001791358 326.6109807919006 615.4317725558843 331.24651985397713Q607.4455449326329 335.88205891605367 595.478800071294 335.88205891605367L595.478800071294 335.88205891605367L579.3299927952556 335.88205891605367L579.3299927952556 404.2562600816826ZM579.3299927952556 272.01743107711866L579.3299927952556 321.16926102337595L588.7774229489441 321.16926102337595Q597.6454107198733 321.16926102337595 602.7344264293268 319.1790024043322Q607.8234421387804 317.18874378528847 609.9900527873597 312.2005006641409Q612.156663435939 307.2122575429933 612.156663435939 298.14272459545225L612.156663435939 298.14272459545225Q612.156663435939 287.611989117474 610.6198814642723 281.99391731941387Q609.0830994926056 276.3758455213537 604.195628959764 274.20923487277446Q599.2829652798459 272.01743107711866 588.9537749784797 272.01743107711866L588.9537749784797 272.01743107711866L579.3299927952556 272.01743107711866ZM680.9087618077155 406.0701666711908L680.9087618077155 406.0701666711908Q667.1281103568683 406.0701666711908 658.8647581157754 400.17497025528917Q650.6265990217589 394.27977383938753 646.8980132544365 383.0436302432672Q643.1946206341906 371.7822935000704 643.1946206341906 356.01138343017954L643.1946206341906 356.01138343017954L643.1946206341906 306.8595534839223Q643.1946206341906 290.71074620788386 646.5453091953655 279.3738300234576Q649.8959977565403 268.03691383903123 658.5120540567043 262.04094483482356Q667.1281103568683 256.07016897769233 682.5463163676882 256.07016897769233L682.5463163676882 256.07016897769233Q696.3269678185352 256.07016897769233 704.7666720891638 260.6805148926924Q713.2063763597922 265.3160539547689 717.0105415683441 274.839063549687Q720.8147067768962 284.3620731446051 720.8147067768962 298.87332586067083L720.8147067768962 298.87332586067083L720.8147067768962 304.3150456291955L701.5923355575244 304.3150456291955L701.5923355575244 299.7802791554249Q701.5923355575244 290.15649697220084 700.3326782036993 284.0849485267636Q699.0478277027976 278.0134000813264 695.1428899059397 275.0154155792226Q691.2631452561582 272.01743107711866 682.8990204267592 272.01743107711866L682.8990204267592 272.01743107711866Q673.8294874792182 272.01743107711866 669.7481976528246 276.1994934918182Q665.6669078264312 280.35636275944114 664.6843750904476 287.5364096762445Q663.6766492073874 294.69126344597134 663.6766492073874 303.7607963935124L663.6766492073874 303.7607963935124L663.6766492073874 358.17799407875873Q663.6766492073874 368.708729556737 665.2134311790542 375.7880038852343Q666.7754062977973 382.84208506665516 671.1086275949558 386.29354621613606Q675.4670420391908 389.74500736561697 683.4532696624423 389.74500736561697L683.4532696624423 389.74500736561697Q691.4394972856937 389.74500736561697 695.7979117299287 385.94084215706505Q700.1311330270872 382.136676948513 701.76868758706 374.67950541386824Q703.4062421470326 367.24752702629985 703.4062421470326 356.187735459715L703.4062421470326 356.187735459715L703.4062421470326 346.0348971878843L684.7129270162675 346.0348971878843L684.7129270162675 331.52364447181867L721.8980121011857 331.52364447181867L721.8980121011857 404.2562600816826L709.0243139450928 404.2562600816826L707.034055326049 387.3768515404257Q704.1368434122512 395.53943119321264 697.9645223785079 400.8047989322017Q691.7922013447647 406.0701666711908 680.9087618077155 406.0701666711908ZM776.8694590221152 405.89381464165535L776.8694590221152 405.89381464165535Q763.6178636598746 405.89381464165535 755.6568291836996 400.62844690266627Q747.6706015604482 395.36307916367707 744.1183678226613 385.6637175392235Q740.5913272319509 375.96435591476984 740.5913272319509 362.88911258206485L740.5913272319509 362.88911258206485Q740.5913272319509 355.45713419449646 741.8509845857761 349.83906239643625Q743.1358350866777 344.22099059837615 745.5795703530985 339.9633487424471Q748.0233056195193 335.6805137394416 751.3739941806941 332.50617720780224Q754.7498758889456 329.33184067616287 758.730393127033 326.81252596851266L758.730393127033 326.81252596851266Q751.4747667690002 321.8998622885946 746.9400002952297 314.0144072536491Q742.4052338214592 306.12895221870366 742.4052338214592 293.96066218075276L742.4052338214592 293.96066218075276Q742.4052338214592 282.3718145255614 746.0330470004756 273.8313376666269Q749.660860179492 265.3160539547689 757.369963184902 260.6805148926924Q765.0790661903118 256.07016897769233 776.8694590221152 256.07016897769233L776.8694590221152 256.07016897769233Q788.6598518539186 256.07016897769233 796.1926028297929 260.6805148926924Q803.7253538056673 265.3160539547689 807.3531669846838 273.8313376666269Q810.9809801637002 282.3718145255614 810.9809801637002 293.96066218075276L810.9809801637002 293.96066218075276Q810.9809801637002 306.30530424823917 806.5217931311591 314.1151798419552Q802.0877992456947 321.8998622885946 794.6558208581263 326.81252596851266L794.6558208581263 326.81252596851266Q798.6363380962136 329.33184067616287 801.9870266573886 332.50617720780224Q805.3377152185635 335.6805137394416 807.8066436320607 339.9633487424471Q810.2503788984816 344.22099059837615 811.6108088406128 349.83906239643625Q812.9712387827439 355.45713419449646 812.9712387827439 362.88911258206485L812.9712387827439 362.88911258206485Q812.9712387827439 375.96435591476984 809.419005044957 385.6637175392235Q805.8919644542466 395.36307916367707 798.0065094193011 400.62844690266627Q790.1210543843557 405.89381464165535 776.8694590221152 405.89381464165535ZM776.8694590221152 390.4756086308355L776.8694590221152 390.4756086308355Q783.9487333506124 390.4756086308355 787.7528985591645 386.84779545181914Q791.5570637677164 383.21998227280267 792.9174937098476 377.0476612390595Q794.2779236519787 370.8753402053162 794.2779236519787 363.26700978821236L794.2779236519787 363.26700978821236Q794.2779236519787 356.36408748925055 792.741141680312 350.29253904381335Q791.2043597086454 344.22099059837615 787.4001945000934 340.31605280151825Q783.5708361444649 336.41111500466025 776.8694590221152 336.41111500466025L776.8694590221152 336.41111500466025Q770.1680818997654 336.41111500466025 766.2631441029074 340.21528021321217Q762.3582063060494 344.0446385688406 760.7206517460768 350.1161870142779Q759.083097186104 356.187735459715 759.083097186104 363.26700978821236L759.083097186104 363.26700978821236Q759.083097186104 370.8753402053162 760.5442997165412 377.0476612390595Q762.0055022469785 383.21998227280267 765.8852468967599 386.84779545181914Q769.7901846936179 390.4756086308355 776.8694590221152 390.4756086308355ZM776.8694590221152 317.9193450505071L776.8694590221152 317.9193450505071Q783.0417800558583 317.74299302097154 786.2161165874977 314.1151798419552Q789.3904531191371 310.4873666629387 790.6501104729623 304.7685222765725Q791.9349609738639 299.04967789020634 791.9349609738639 292.87735685646317L791.9349609738639 292.87735685646317Q791.9349609738639 283.80782390892205 788.6598518539186 277.4591508456433Q785.3847427339731 271.11047778236457 776.8694590221152 271.11047778236457L776.8694590221152 271.11047778236457Q768.3541753102572 271.11047778236457 764.9027141607762 277.4591508456433Q761.4512530112953 283.80782390892205 761.4512530112953 292.87735685646317L761.4512530112953 292.87735685646317Q761.4512530112953 299.04967789020634 762.7109103651205 304.7685222765725Q763.9957608660221 310.4873666629387 767.3464494271971 314.1151798419552Q770.6971379883719 317.74299302097154 776.8694590221152 317.9193450505071ZM869.0259910279628 405.89381464165535L869.0259910279628 405.89381464165535Q856.5049969309409 405.89381464165535 848.4179967193835 400.27574284359514Q840.3561896549026 394.63247789845855 836.4512518580445 384.8575368327754Q832.5463140611866 375.05740262001575 832.5463140611866 362.53640852299384L832.5463140611866 362.53640852299384L832.5463140611866 299.2260299197419Q832.5463140611866 286.35233176364886 836.3756724168152 276.65297013919525Q840.1798376253671 266.95360851474163 848.241644689848 261.511888746217Q856.3286449014054 256.07016897769233 869.0259910279628 256.07016897769233L869.0259910279628 256.07016897769233Q881.7233371545203 256.07016897769233 889.6843716306953 261.511888746217Q897.6705992539468 266.95360851474163 901.4747644624987 276.65297013919525Q905.3041228181271 286.35233176364886 905.3041228181271 299.2260299197419L905.3041228181271 299.2260299197419L905.3041228181271 362.53640852299384Q905.3041228181271 375.2337546495513 901.3991850212692 385.03388886231085Q897.4942472244113 394.8340230750705 889.5080196011597 400.35132228482473Q881.5217919779084 405.89381464165535 869.0259910279628 405.89381464165535ZM869.0259910279628 389.9213593951524L869.0259910279628 389.9213593951524Q875.9037201798482 389.9213593951524 879.4559539176352 385.94084215706505Q882.9829945083455 381.93513177190107 884.3434244504767 375.6872312969283Q885.7038543926078 369.43933082195554 885.7038543926078 362.7127605525293L885.7038543926078 362.7127605525293L885.7038543926078 299.04967789020634Q885.7038543926078 291.970403561709 884.4441970387827 285.7225030867363Q883.1593465378811 279.44940946468705 879.6323059471706 275.64524425613513Q876.0800722093837 271.8410790475832 869.0259910279628 271.8410790475832L869.0259910279628 271.8410790475832Q861.9467166994655 271.8410790475832 858.3189035204491 275.64524425613513Q854.6910903414328 279.44940946468705 853.406239840531 285.7225030867363Q852.1465824867059 291.970403561709 852.1465824867059 299.04967789020634L852.1465824867059 299.04967789020634L852.1465824867059 362.7127605525293Q852.1465824867059 369.43933082195554 853.507012428837 375.6872312969283Q854.8674423709683 381.93513177190107 858.5960281382906 385.94084215706505Q862.2994207585366 389.9213593951524 869.0259910279628 389.9213593951524ZM958.990719238155 405.89381464165535L958.990719238155 405.89381464165535Q947.0239743768161 405.89381464165535 939.0377467535645 401.3590481678848Q931.0515191303132 396.82428169411423 927.0710018922257 388.2838048351798Q923.0652915070617 379.76852112332176 923.0652915070617 368.15448032105394L923.0652915070617 368.15448032105394L923.0652915070617 363.26700978821236L942.2876627264335 363.26700978821236Q942.2876627264335 363.9976110534309 942.2876627264335 364.8037917598791Q942.2876627264335 365.6099724663271 942.2876627264335 366.5169257610812L942.2876627264335 366.5169257610812Q942.4892079030456 373.067144000972 943.8496378451766 378.3073185928846Q945.2100677873078 383.5726863318737 948.7371083780183 386.6714434222836Q952.2641489687286 389.74500736561697 958.990719238155 389.74500736561697L958.990719238155 389.74500736561697Q966.0699935666523 389.74500736561697 969.6978067456687 386.39431880444204Q973.325619924685 383.0436302432672 974.5852772785103 376.87130920952393Q975.8449346323355 370.69898817578076 975.8449346323355 362.7127605525293L975.8449346323355 362.7127605525293Q975.8449346323355 351.09871975026147 971.5872927764065 343.76751395099905Q967.3296509204774 336.41111500466025 956.6225634129637 335.6805137394416L956.6225634129637 335.6805137394416Q956.093507324357 335.50416170990616 955.2621334708324 335.50416170990616Q954.4559527643844 335.50416170990616 953.9017035287013 335.50416170990616L953.9017035287013 335.50416170990616L953.9017035287013 316.1054384609988Q954.4559527643844 316.1054384609988 955.186554029603 316.1054384609988Q955.8919621477451 316.1054384609988 956.4462113834281 316.1054384609988L956.4462113834281 316.1054384609988Q966.7754016847944 315.7275412548513 971.3101681585648 310.6637186924742Q975.8449346323355 305.5747029830206 975.8449346323355 293.78431015121726L975.8449346323355 293.78431015121726Q975.8449346323355 283.80782390892205 972.4942460711604 277.8370480517909Q969.1435575099856 271.8410790475832 959.1670712676904 271.8410790475832L959.1670712676904 271.8410790475832Q949.1905850253952 271.8410790475832 945.91547590545 278.4668767287035Q942.6655599325809 285.09267440982376 942.2876627264335 295.4218647111899L942.2876627264335 295.4218647111899Q942.2876627264335 296.1524659764085 942.2876627264335 296.9586466828566Q942.2876627264335 297.79002053638123 942.2876627264335 298.4954286545233L942.2876627264335 298.4954286545233L923.0652915070617 298.4954286545233L923.0652915070617 293.6079581216817Q923.0652915070617 281.81756528987836 927.0710018922257 273.4786336075559Q931.0515191303132 265.1397019252334 939.1133261947941 260.6049354514629Q947.2003264063516 256.07016897769233 959.1670712676904 256.07016897769233L959.1670712676904 256.07016897769233Q971.3101681585648 256.07016897769233 979.2963957818163 260.6049354514629Q987.2826234050677 265.1397019252334 991.2631406431552 273.55421304878536Q995.2688510283192 281.99391731941387 995.2688510283192 293.78431015121726L995.2688510283192 293.78431015121726Q995.2688510283192 307.0359055134578 989.5500066419529 315.0221331367093Q983.8311622555868 322.98316761288413 974.2325732194391 325.90557267375846L974.2325732194391 325.90557267375846Q980.9339503417891 327.8958312928022 985.5694894038654 332.7833018256438Q990.1798353188656 337.69596550556184 992.7243431735924 345.2035233343597Q995.2688510283192 352.7362743102342 995.2688510283192 362.7127605525293L995.2688510283192 362.7127605525293Q995.2688510283192 375.7880038852343 991.6410378493027 385.48736550968795Q988.0132246702863 395.1867271341416 980.0269970470349 400.5276743143602Q972.0407694237836 405.89381464165535 958.990719238155 405.89381464165535Z " fill="#292826r" transform="matrix(0.879159444675701,0,0,0.8791594446757008,0,8.93653309800905)"/></g></svg>